<svg width="32" height="32" viewBox="0 0 32 32" fill="none" xmlns="http://www.w3.org/2000/svg">
<g clip-path="url(#clip0_244_12)">
<path d="M27.3135 4.6865C21.0648 -1.56219 10.9338 -1.56219 4.68644 4.68663C-1.56219 10.9352 -1.56219 21.0662 4.68669 27.3136C10.9338 33.5622 21.0648 33.5622 27.3135 27.3134C33.5622 21.0662 33.5622 10.9353 27.3135 4.6865ZM25.428 25.4277C20.2206 30.6351 11.7782 30.6351 6.57231 25.428C1.36494 20.2218 1.36494 11.7794 6.57219 6.57219C11.7782 1.36487 20.2206 1.36487 25.4279 6.57219C30.6351 11.7795 30.6351 20.2218 25.428 25.4277Z" fill="#CA4040"/>
<path d="M16 7.80005V17.8" stroke="#CA4040" stroke-width="3.5" stroke-linecap="round" stroke-linejoin="round"/>
<circle cx="16" cy="22.55" r="1.75" fill="#CA4040"/>
</g>
<defs>
<clipPath id="clip0_244_12">
<rect width="32" height="32" fill="white"/>
</clipPath>
</defs>
</svg>
