<svg width="230" height="184" viewBox="0 0 230 184" fill="none" xmlns="http://www.w3.org/2000/svg">
<circle cx="122.5" cy="96.5" r="87.5" fill="#E3E8F4"/>
<circle cx="197.5" cy="6.5" r="6.5" fill="#E3E8F4"/>
<circle cx="220" cy="30" r="10" fill="#E3E8F4"/>
<circle cx="7" cy="116" r="7" fill="#E3E8F4"/>
<path d="M75.94 140.97L76.2 141.02V151H72.72V137.8H77.44L82.21 147.76L81.96 147.81V137.8H85.43V151H80.69L75.94 140.97ZM90.8247 144.39C90.8247 145.057 90.958 145.663 91.2247 146.21C91.498 146.75 91.878 147.18 92.3647 147.5C92.8514 147.82 93.418 147.98 94.0647 147.98C94.7114 147.98 95.278 147.82 95.7647 147.5C96.2514 147.18 96.628 146.75 96.8947 146.21C97.168 145.663 97.3047 145.057 97.3047 144.39C97.3047 143.723 97.168 143.12 96.8947 142.58C96.628 142.04 96.2514 141.61 95.7647 141.29C95.278 140.963 94.7114 140.8 94.0647 140.8C93.418 140.8 92.8514 140.963 92.3647 141.29C91.878 141.61 91.498 142.04 91.2247 142.58C90.958 143.12 90.8247 143.723 90.8247 144.39ZM87.1947 144.39C87.1947 143.43 87.368 142.537 87.7147 141.71C88.0614 140.877 88.5447 140.15 89.1647 139.53C89.7847 138.91 90.5114 138.427 91.3447 138.08C92.1847 137.733 93.0914 137.56 94.0647 137.56C95.0514 137.56 95.9614 137.733 96.7947 138.08C97.628 138.427 98.3547 138.91 98.9747 139.53C99.5947 140.15 100.075 140.877 100.415 141.71C100.755 142.537 100.925 143.43 100.925 144.39C100.925 145.357 100.758 146.257 100.425 147.09C100.091 147.917 99.618 148.643 99.0047 149.27C98.398 149.89 97.6747 150.373 96.8347 150.72C95.9947 151.067 95.0714 151.24 94.0647 151.24C93.0247 151.24 92.0847 151.067 91.2447 150.72C90.4047 150.373 89.6814 149.89 89.0747 149.27C88.4747 148.643 88.0114 147.917 87.6847 147.09C87.358 146.257 87.1947 145.357 87.1947 144.39ZM104.377 140.83H101.397V137.8H110.837V140.83H107.857V151H104.377V140.83ZM117.879 137.8H125.799V140.83H121.359V142.87H125.449V145.9H121.359V151H117.879V137.8ZM130.844 144.39C130.844 145.057 130.978 145.663 131.244 146.21C131.518 146.75 131.898 147.18 132.384 147.5C132.871 147.82 133.438 147.98 134.084 147.98C134.731 147.98 135.298 147.82 135.784 147.5C136.271 147.18 136.648 146.75 136.914 146.21C137.188 145.663 137.324 145.057 137.324 144.39C137.324 143.723 137.188 143.12 136.914 142.58C136.648 142.04 136.271 141.61 135.784 141.29C135.298 140.963 134.731 140.8 134.084 140.8C133.438 140.8 132.871 140.963 132.384 141.29C131.898 141.61 131.518 142.04 131.244 142.58C130.978 143.12 130.844 143.723 130.844 144.39ZM127.214 144.39C127.214 143.43 127.388 142.537 127.734 141.71C128.081 140.877 128.564 140.15 129.184 139.53C129.804 138.91 130.531 138.427 131.364 138.08C132.204 137.733 133.111 137.56 134.084 137.56C135.071 137.56 135.981 137.733 136.814 138.08C137.648 138.427 138.374 138.91 138.994 139.53C139.614 140.15 140.094 140.877 140.434 141.71C140.774 142.537 140.944 143.43 140.944 144.39C140.944 145.357 140.778 146.257 140.444 147.09C140.111 147.917 139.638 148.643 139.024 149.27C138.418 149.89 137.694 150.373 136.854 150.72C136.014 151.067 135.091 151.24 134.084 151.24C133.044 151.24 132.104 151.067 131.264 150.72C130.424 150.373 129.701 149.89 129.094 149.27C128.494 148.643 128.031 147.917 127.704 147.09C127.378 146.257 127.214 145.357 127.214 144.39ZM149.944 137.8H153.414V145.88C153.414 146.967 153.204 147.91 152.784 148.71C152.364 149.51 151.751 150.133 150.944 150.58C150.138 151.02 149.158 151.24 148.004 151.24C146.851 151.24 145.868 151.02 145.054 150.58C144.241 150.133 143.621 149.51 143.194 148.71C142.774 147.91 142.564 146.967 142.564 145.88V137.8H146.044V145.69C146.044 146.23 146.118 146.677 146.264 147.03C146.418 147.383 146.641 147.65 146.934 147.83C147.228 148.003 147.584 148.09 148.004 148.09C148.418 148.09 148.768 148.003 149.054 147.83C149.341 147.65 149.561 147.383 149.714 147.03C149.868 146.677 149.944 146.23 149.944 145.69V137.8ZM158.616 140.97L158.876 141.02V151H155.396V137.8H160.116L164.886 147.76L164.636 147.81V137.8H168.106V151H163.366L158.616 140.97ZM170.26 137.8H174.56C175.967 137.8 177.134 138.083 178.06 138.65C178.994 139.21 179.694 139.987 180.16 140.98C180.627 141.973 180.86 143.11 180.86 144.39C180.86 145.677 180.627 146.817 180.16 147.81C179.694 148.803 178.994 149.583 178.06 150.15C177.134 150.717 175.967 151 174.56 151H170.26V137.8ZM173.74 140.87V147.93H174.25C174.89 147.93 175.424 147.777 175.85 147.47C176.284 147.157 176.61 146.733 176.83 146.2C177.057 145.667 177.17 145.07 177.17 144.41C177.17 143.743 177.06 143.143 176.84 142.61C176.62 142.077 176.294 141.653 175.86 141.34C175.427 141.027 174.89 140.87 174.25 140.87H173.74Z" fill="url(#paint0_linear_122_35)"/>
<g clip-path="url(#clip0_122_35)">
<path d="M78.25 116.625H161.688C165.125 116.625 168.25 115.063 170.125 112.25C172 109.438 172.625 106.313 171.375 103.188C167 90.6875 155.125 82.25 141.375 82.25H78.25C76.375 82.25 75.125 83.5 75.125 85.375V113.5C75.125 115.375 76.375 116.625 78.25 116.625ZM118.875 97.875V88.5H131.375V97.875H118.875ZM112.625 97.875H100.125V88.5H112.625V97.875ZM161.375 97.875H137.625V88.5H141.687C149.5 88.5 156.688 91.9375 161.375 97.875ZM93.875 88.5V97.875H81.375V88.5H93.875Z" fill="url(#paint1_linear_122_35)"/>
<path d="M168.875 122.875H75.125C73.25 122.875 72 124.125 72 126C72 127.875 73.25 129.125 75.125 129.125H168.875C170.75 129.125 172 127.875 172 126C172 124.125 170.75 122.875 168.875 122.875Z" fill="url(#paint2_linear_122_35)"/>
</g>
<circle cx="120.381" cy="64.7523" r="24" transform="rotate(178.616 120.381 64.7523)" fill="#E3E8F4"/>
<g clip-path="url(#clip1_122_35)">
<path d="M119.923 84.0676C125.816 83.9253 130.527 78.9955 130.385 73.1197C130.33 70.843 129.553 68.7438 128.28 67.0343L120.582 57.1027C119.504 55.7643 118.815 56.0398 117.975 57.2378L110.022 68.6533C109.867 68.96 109.738 69.2794 109.637 69.608C109.159 70.8607 108.91 72.2223 108.945 73.6378C109.087 79.5136 114.03 84.2101 119.923 84.0676ZM119.802 79.0593C116.629 79.1359 114.043 76.6809 113.967 73.5165C113.891 70.352 116.355 67.7723 119.528 67.6956C122.701 67.619 125.286 70.0767 125.362 73.2411C125.439 76.4047 122.975 78.9826 119.802 79.0593Z" fill="#FCFDFE"/>
<path d="M119.408 95.6282C127.792 95.4256 136.1 92.0357 142.322 85.5061C154.766 72.4452 154.263 51.6595 141.203 39.2157C128.978 27.5678 110.02 27.3234 97.4388 38.0488L94.2168 34.978C94.3793 34.3339 94.4058 33.7173 94.2944 33.1709C94.183 32.6245 93.9365 32.1612 93.5717 31.8132L70.1898 9.53458C69.5213 8.89783 68.4992 8.68705 67.3484 8.94861C66.1975 9.21017 65.0121 9.92264 64.053 10.9293C63.0938 11.936 62.4394 13.1544 62.2337 14.3165C62.0281 15.4787 62.288 16.4895 62.9563 17.1264L86.3372 39.405C86.7027 39.753 87.1777 39.9771 87.7293 40.062C88.281 40.1468 88.8961 40.0904 89.5321 39.8965L92.7541 42.9673C82.6489 56.0518 83.8069 74.9758 96.0325 86.6237C102.562 92.847 111.024 95.8308 119.408 95.6282ZM119.233 88.3993C112.726 88.5566 106.157 86.2206 101.05 81.3556C98.6228 79.0526 96.674 76.2928 95.3158 73.2347C93.9577 70.1765 93.2169 66.8802 93.1361 63.535C93.0552 60.1898 93.6359 56.8616 94.8448 53.7414C96.0536 50.6212 97.8669 47.7705 100.18 45.3529C102.483 42.9254 105.243 40.9766 108.301 39.6184C111.359 38.2603 114.656 37.5195 118.001 37.4387C121.346 37.3578 124.674 37.9385 127.795 39.1474C130.915 40.3562 133.765 42.1695 136.183 44.483C138.611 46.786 140.559 49.5458 141.917 52.6039C143.276 55.6621 144.016 58.9584 144.097 62.3036C144.178 65.6488 143.597 68.977 142.389 72.0972C141.18 75.2174 139.366 78.0681 137.053 80.4857C132.188 85.5917 125.74 88.2421 119.233 88.3993Z" fill="#FCFDFE"/>
<path d="M124.863 49.8771L133.842 46.6875C129.923 43.0786 124.848 40.9802 119.525 40.7669L124.863 49.8771Z" fill="#FCFDFE"/>
<path d="M96.2669 60.0308L118.501 52.1346L112.346 41.6322C109.195 42.5447 106.281 44.1334 103.807 46.2874C99.7258 49.8153 97.0496 54.6933 96.2669 60.0308Z" fill="#FCFDFE"/>
<path d="M141.12 64.997C141.454 60.5284 140.445 56.0618 138.222 52.1713L129.913 55.1211L141.12 64.997Z" fill="#FCFDFE"/>
<path d="M98.7998 74.1479L103.237 64.5938L96.3281 67.0458C96.7464 69.5354 97.5821 71.9365 98.7998 74.1479Z" fill="#FCFDFE"/>
</g>
<defs>
<linearGradient id="paint0_linear_122_35" x1="72" y1="146" x2="182" y2="146" gradientUnits="userSpaceOnUse">
<stop stop-color="#A1AACD"/>
<stop offset="1" stop-color="#B5BCDA"/>
</linearGradient>
<linearGradient id="paint1_linear_122_35" x1="123.575" y1="82.25" x2="123.575" y2="116.625" gradientUnits="userSpaceOnUse">
<stop stop-color="#BFC5E1"/>
<stop offset="1" stop-color="#9FA9CC"/>
</linearGradient>
<linearGradient id="paint2_linear_122_35" x1="122" y1="122.875" x2="122" y2="129.125" gradientUnits="userSpaceOnUse">
<stop stop-color="#BFC5E1"/>
<stop offset="1" stop-color="#9FA9CC"/>
</linearGradient>
<clipPath id="clip0_122_35">
<rect width="100" height="100" fill="white" transform="translate(72 51)"/>
</clipPath>
<clipPath id="clip1_122_35">
<rect width="88" height="88" fill="white" transform="translate(152.121 94.9944) rotate(178.616)"/>
</clipPath>
</defs>
</svg>
