<svg width="400" height="320" viewBox="0 0 400 320" fill="none" xmlns="http://www.w3.org/2000/svg">
<g clip-path="url(#clip0_127_12)">
<rect x="60.8696" y="15.6522" width="304.348" height="304.348" rx="152.174" fill="#E3E8F4"/>
<path d="M103.287 299.452L112.395 283.831H82.9631L97.6737 264.311H123.777L132.885 248.695H109.333L121.045 233.073H141.997L148.101 222.608H128.842L138.557 209.681H155.643L160.277 201.735H144.442L152.08 191.791H166.077L170.716 183.834H157.864L163.85 175.882H175.36L178.833 169.922H168.314L173.31 163.296H182.705L185.794 157.997H177.267L181.245 152.703H188.883L190.955 149.145H183.892L187.179 144.761H193.511L195.088 142.061H189.192L191.775 138.684H197.059L198.63 135.984H193.74L195.77 133.278H187.211C187.211 133.278 178.561 129.838 169.533 128.272C162.929 117.593 156.745 100.667 142.887 108.699C140.203 110.27 137.396 111.621 134.493 112.736C132.517 109.178 130.094 106.041 126.584 104.427C124.993 103.693 123.26 103.319 121.508 103.33C117.535 103.33 113.412 105.119 109.258 107.521C98.1478 94.2489 95.8416 69.0512 75.5918 81.9616C69.4189 85.8923 64.1567 93.8228 60.1941 101.391C55.326 93.8548 52.3914 86.9095 52.3914 86.9095V324.826L71.3789 299.447L103.287 299.452Z" fill="url(#paint0_linear_127_12)"/>
<path d="M310.099 312.938L292.523 277.035L286.297 264.311L255.667 201.74L252.796 195.871L246.911 183.834L246.549 183.088L240.099 169.917L236.86 163.291L234.267 157.992L233.638 156.713L229.931 149.14L227.79 144.756L226.469 142.056L224.813 138.679L222.171 133.273H221.431L222.661 135.979H201.698L202.928 133.273H202.188L199.546 138.679L197.889 142.056L196.569 144.756L194.428 149.14L190.721 156.713L190.092 157.992L187.498 163.291L184.26 169.917L177.81 183.088L177.448 183.834L171.563 195.871L168.692 201.74L138.051 264.311L131.825 277.035L114.249 312.938L108.427 324.826L107.469 326.775H107.623V342.391H316.714V326.775H316.869L315.91 324.826L310.099 312.938ZM200.462 138.684H223.886L225.425 142.061H198.917L200.462 138.684ZM197.687 144.761H226.656L228.658 149.145H195.684L197.687 144.761ZM194.065 152.703H230.283L232.701 157.997H191.642L194.065 152.703ZM189.224 163.296H235.119L238.139 169.922H186.199L189.224 163.296ZM183.482 175.882H240.86L244.498 183.834H179.85L183.482 175.882ZM176.218 191.796H248.13L252.674 201.74H171.674L176.218 191.796ZM168.053 209.687H256.295L262.197 222.613H162.146L168.053 209.687ZM157.374 233.079H266.974L274.106 248.7H150.242L157.374 233.079ZM143.116 264.311H281.232L290.148 283.831H134.2L143.116 264.311ZM115.49 324.826L127.079 299.447H297.274L308.864 324.826H115.49Z" fill="url(#paint1_linear_127_12)"/>
<path d="M371.957 54.7826C371.957 54.7826 364.655 73.1789 358.013 76.023C342.722 82.5581 333.172 69.9832 321.503 75.6129C310.313 81.0029 308.118 95.0372 301.839 105.151C297.2 102.446 292.332 100.283 287.613 100.283C287.203 100.283 286.803 100.294 286.393 100.331C276.044 101.183 266.655 117.668 261.893 123.399C256.53 129.87 237.143 133.278 237.143 133.278H228.578L230.608 135.984H225.718L227.289 138.684H232.573L235.156 142.061H229.26L230.837 144.761H237.169L240.456 149.145H233.393L235.465 152.703H243.103L247.081 157.997H238.554L241.643 163.296H251.038L256.034 169.922H245.515L248.988 175.882H260.498L266.484 183.834H253.632L258.271 191.791H272.268L279.906 201.735H264.071L268.705 209.681H285.791L295.506 222.608H276.247L282.351 233.073H303.303L315.015 248.695H291.463L300.571 264.311H326.674L341.385 283.831H311.958L321.066 299.452H352.969L371.957 324.826V54.7826Z" fill="url(#paint2_linear_127_12)"/>
<rect x="151" y="165" width="11" height="37" fill="url(#paint3_linear_127_12)"/>
<rect x="264" y="164" width="11" height="37" fill="url(#paint4_linear_127_12)"/>
<rect x="113" y="149" width="193" height="19" fill="url(#paint5_linear_127_12)"/>
<g clip-path="url(#clip1_127_12)">
<rect x="113" y="142.5" width="14" height="32" fill="#A3ACCF"/>
<rect x="143" y="142.5" width="14" height="32" fill="#A3ACCF"/>
<rect x="173" y="142.5" width="14" height="32" fill="#A3ACCF"/>
<rect x="203" y="142.5" width="14" height="32" fill="#A3ACCF"/>
<rect x="233" y="142.5" width="14" height="32" fill="#A3ACCF"/>
<rect x="263" y="142.5" width="14" height="32" fill="#A3ACCF"/>
<rect x="293" y="142.5" width="14" height="32" fill="#A3ACCF"/>
</g>
<path d="M174.432 59.64V95.16H181.824V109.656H174.432V123H157.776V109.656H131.904V96.504L155.04 59.64H174.432ZM157.776 95.16V80.328H157.68L148.512 95.16H157.776ZM185.382 91.368C185.382 85.928 186.086 81.16 187.494 77.064C188.902 72.936 190.838 69.496 193.302 66.744C195.798 63.992 198.63 61.928 201.798 60.552C204.966 59.176 208.31 58.488 211.83 58.488C215.414 58.488 218.79 59.176 221.958 60.552C225.126 61.928 227.926 63.992 230.358 66.744C232.822 69.496 234.758 72.936 236.166 77.064C237.574 81.16 238.278 85.928 238.278 91.368C238.278 97.288 237.574 102.328 236.166 106.488C234.758 110.648 232.822 114.024 230.358 116.616C227.926 119.208 225.126 121.112 221.958 122.328C218.79 123.544 215.414 124.152 211.83 124.152C208.31 124.152 204.966 123.544 201.798 122.328C198.63 121.112 195.798 119.208 193.302 116.616C190.838 114.024 188.902 110.648 187.494 106.488C186.086 102.328 185.382 97.288 185.382 91.368ZM202.086 91.368C202.086 95.528 202.454 98.952 203.19 101.64C203.958 104.296 205.062 106.28 206.502 107.592C207.942 108.872 209.718 109.512 211.83 109.512C213.974 109.512 215.766 108.872 217.206 107.592C218.646 106.28 219.718 104.28 220.422 101.592C221.158 98.904 221.526 95.496 221.526 91.368C221.526 87.56 221.158 84.312 220.422 81.624C219.718 78.904 218.646 76.808 217.206 75.336C215.766 73.864 213.974 73.128 211.83 73.128C209.718 73.128 207.942 73.864 206.502 75.336C205.062 76.808 203.958 78.904 203.19 81.624C202.454 84.344 202.086 87.592 202.086 91.368ZM283.557 59.64V95.16H290.949V109.656H283.557V123H266.901V109.656H241.029V96.504L264.165 59.64H283.557ZM266.901 95.16V80.328H266.805L257.637 95.16H266.901Z" fill="white"/>
</g>
<circle cx="343.478" cy="11.3043" r="11.3043" fill="#E3E8F4"/>
<circle cx="382.609" cy="52.1739" r="17.3913" fill="#E3E8F4"/>
<circle cx="12.1739" cy="201.739" r="12.1739" fill="#E3E8F4"/>
<defs>
<linearGradient id="paint0_linear_127_12" x1="125.511" y1="78.3851" x2="125.511" y2="324.826" gradientUnits="userSpaceOnUse">
<stop stop-color="#C5CAE4"/>
<stop offset="1" stop-color="#9EA8CB"/>
</linearGradient>
<linearGradient id="paint1_linear_127_12" x1="212.169" y1="133.273" x2="212.169" y2="342.391" gradientUnits="userSpaceOnUse">
<stop stop-color="#C5CAE4"/>
<stop offset="1" stop-color="#9EA8CB"/>
</linearGradient>
<linearGradient id="paint2_linear_127_12" x1="298.837" y1="54.7826" x2="298.837" y2="324.826" gradientUnits="userSpaceOnUse">
<stop stop-color="#C5CAE4"/>
<stop offset="1" stop-color="#9EA8CB"/>
</linearGradient>
<linearGradient id="paint3_linear_127_12" x1="156.5" y1="165" x2="156.5" y2="202" gradientUnits="userSpaceOnUse">
<stop offset="0.665" stop-color="white"/>
<stop offset="1" stop-color="#E3E8F4"/>
</linearGradient>
<linearGradient id="paint4_linear_127_12" x1="269.5" y1="164" x2="269.5" y2="201" gradientUnits="userSpaceOnUse">
<stop offset="0.665" stop-color="white"/>
<stop offset="1" stop-color="#E3E8F4"/>
</linearGradient>
<linearGradient id="paint5_linear_127_12" x1="209.5" y1="149" x2="209.5" y2="168" gradientUnits="userSpaceOnUse">
<stop offset="0.665" stop-color="white"/>
<stop offset="1" stop-color="#E3E8F4"/>
</linearGradient>
<clipPath id="clip0_127_12">
<rect x="60.8696" y="15.6522" width="304.348" height="304.348" rx="152.174" fill="white"/>
</clipPath>
<clipPath id="clip1_127_12">
<rect width="194" height="19" fill="white" transform="translate(113 149)"/>
</clipPath>
</defs>
</svg>
