<svg width="32" height="32" viewBox="0 0 32 32" fill="none" xmlns="http://www.w3.org/2000/svg">
<g clip-path="url(#clip0_243_2)">
<path d="M27.3135 4.6865C21.0648 -1.56219 10.9338 -1.56219 4.68644 4.68663C-1.56219 10.9352 -1.56219 21.0662 4.68669 27.3136C10.9338 33.5622 21.0648 33.5622 27.3135 27.3134C33.5622 21.0662 33.5622 10.9353 27.3135 4.6865ZM25.428 25.4277C20.2206 30.6351 11.7782 30.6351 6.57231 25.428C1.36494 20.2218 1.36494 11.7794 6.57219 6.57219C11.7782 1.36487 20.2206 1.36487 25.4279 6.57219C30.6351 11.7795 30.6351 20.2218 25.428 25.4277Z" fill="#00C136"/>
<path d="M23.0569 9.72401L14.6664 18.1145L10.2759 13.724C9.75521 13.2033 8.91096 13.2033 8.39027 13.724C7.86958 14.2447 7.86958 15.0889 8.39027 15.6096L13.7236 20.9429C14.2443 21.4636 15.0885 21.4636 15.6092 20.9429L24.9425 11.6096C25.4632 11.0889 25.4632 10.2447 24.9425 9.72401C24.4218 9.20332 23.5776 9.20332 23.0569 9.72401Z" fill="#00C136"/>
</g>
<defs>
<clipPath id="clip0_243_2">
<rect width="32" height="32" fill="white"/>
</clipPath>
</defs>
</svg>
