<svg width="230" height="184" viewBox="0 0 230 184" fill="none" xmlns="http://www.w3.org/2000/svg">
<circle cx="122.5" cy="96.5" r="87.5" fill="#E3E8F4"/>
<path d="M105 108.583V148.382C105 151.129 107.197 153.359 109.913 153.359H116.048V103.606H109.913C107.197 103.606 105 105.831 105 108.583Z" fill="url(#paint0_linear_119_34)"/>
<path d="M172.091 103.606H165.956V153.359H172.091C174.803 153.359 177 151.129 177 148.383V108.583C177 105.831 174.803 103.606 172.091 103.606Z" fill="url(#paint1_linear_119_34)"/>
<path d="M130.234 113.216C129.753 113.704 129.753 114.495 130.234 114.981C130.715 115.469 131.494 115.469 131.975 114.981C132.456 114.495 132.456 113.704 131.975 113.216C131.494 112.73 130.715 112.73 130.234 113.216Z" fill="url(#paint2_linear_119_34)"/>
<path d="M154.847 95.7042C154.847 93.4624 153.045 91.641 150.84 91.641H131.165C128.955 91.641 127.157 93.4624 127.157 95.7042V103.606H120.957V153.359H161.048V103.606H154.847V95.7042ZM145.151 122.18L139.074 128.342C138.432 128.991 137.393 128.991 136.751 128.342L127.334 118.794C127.026 118.481 126.853 118.057 126.853 117.616V111.453C126.853 110.534 127.589 109.789 128.495 109.789H134.572C135.008 109.789 135.426 109.964 135.735 110.277L145.151 119.825C145.792 120.475 145.792 121.529 145.151 122.18ZM149.938 103.606H132.067V96.6198H149.938V103.606Z" fill="url(#paint3_linear_119_34)"/>
<g clip-path="url(#clip0_119_34)">
<path d="M88.9581 124.497L57.9568 88.2077L54.0201 84.9479L106.461 37.3265L121.247 27.8045L158.079 70.5147L88.9581 124.497Z" fill="#D9DEF2"/>
<path d="M88.9024 135.963C88.8011 135.767 88.6599 135.564 88.4927 135.38C88.4592 135.343 88.4208 135.306 88.3873 135.269L88.3921 135.274C86.9001 133.658 84.4601 133.44 82.7145 134.684L82.6988 134.698L78.0064 129.531C79.4288 127.894 79.4461 125.444 77.9801 123.809C76.4881 122.192 74.0481 121.974 72.3025 123.218L72.2868 123.233L67.5944 118.065C69.0168 116.428 69.0341 113.978 67.5681 112.343C66.0761 110.726 63.6361 110.508 61.8905 111.753L61.8748 111.767L57.1824 106.6C58.6048 104.962 58.6221 102.513 57.1561 100.877C55.6641 99.2608 53.2241 99.0426 51.4785 100.287L51.4628 100.301L46.7704 95.1341C48.1928 93.4968 48.2101 91.0472 46.7441 89.4117C46.6294 89.2854 46.4566 89.2167 46.3369 89.0902L119.561 22.5949C119.606 22.7178 119.68 22.8472 119.78 22.9577C119.804 22.984 119.828 23.0053 119.852 23.0316L119.847 23.0263C119.857 23.0368 119.866 23.0473 119.876 23.0579C121.443 24.7838 124.109 24.9121 125.83 23.3446C125.84 23.3351 125.851 23.3255 125.861 23.3159C125.988 23.2013 125.994 23.0808 126.12 22.9661L130.817 28.1385C130.705 28.1683 130.591 28.2233 130.497 28.3143C130.481 28.3286 130.46 28.3477 130.444 28.3671C128.743 30.0463 128.657 32.7694 130.272 34.5479C130.386 34.6742 130.502 34.7854 130.622 34.8969L130.608 34.8811C130.618 34.8916 130.627 34.9021 130.637 34.9126C132.204 36.6385 134.87 36.7669 136.59 35.1994C136.601 35.1898 136.612 35.1803 136.622 35.1707C136.748 35.056 136.754 34.9355 136.88 34.8209L141.573 39.988C141.461 40.0179 141.347 40.0728 141.252 40.1638C141.237 40.1781 141.215 40.1973 141.199 40.2166C139.458 41.7982 139.328 44.489 140.91 46.2307C142.491 47.9724 145.182 48.102 146.924 46.5203C147.05 46.4057 147.056 46.2852 147.182 46.1705L151.875 51.3377C151.757 51.3672 151.644 51.4272 151.549 51.5182C151.533 51.5325 151.517 51.5469 151.501 51.5662C149.76 53.1479 149.63 55.8386 151.212 57.5803C152.793 59.322 155.484 59.4516 157.226 57.87C157.352 57.7553 157.358 57.6348 157.484 57.5201L162.176 62.6873C162.064 62.7171 161.951 62.772 161.856 62.8631C161.84 62.8774 161.819 62.8965 161.803 62.9159C161.793 62.9254 161.782 62.935 161.772 62.9445C160.046 64.5118 159.917 67.1775 161.485 68.8984C161.494 68.9089 161.504 68.9194 161.509 68.9247C161.537 68.9563 161.566 68.9929 161.599 69.0297C161.771 69.2191 161.96 69.3791 162.16 69.5095L162.145 69.4988L88.9024 135.963ZM138.021 83.5379L138.595 84.1693C139.068 84.6902 139.876 84.7291 140.397 84.2561C140.918 83.783 140.957 82.9748 140.484 82.4539L139.901 81.8119C139.428 81.291 138.619 81.2521 138.098 81.7251C137.578 82.1982 137.539 83.0064 138.012 83.5273L138.021 83.5379ZM139.11 59.6694L149.183 70.7614C149.656 71.2823 150.464 71.3213 150.985 70.8482C151.506 70.3752 151.545 69.5669 151.072 69.046L140.999 57.954C140.526 57.433 139.718 57.3941 139.197 57.8672C138.676 58.3402 138.637 59.1485 139.11 59.6694ZM112.681 38.823L145.069 74.488C145.542 75.009 146.35 75.0479 146.871 74.5748C147.392 74.1018 147.431 73.2935 146.958 72.7726L114.57 37.1076C114.097 36.5867 113.289 36.5478 112.768 37.0208C112.247 37.4939 112.208 38.3021 112.681 38.823ZM120.899 92.1881L122.345 92.2577C122.673 92.2433 123.001 92.1182 123.269 91.8795C123.537 91.6408 123.688 91.3211 123.734 90.9962L123.734 91.0012C123.728 90.7141 123.621 90.4272 123.41 90.1957C123.143 89.901 122.772 89.7674 122.408 89.7901L122.403 89.7899L111.706 89.2747C111.38 89.254 111.047 89.3587 110.79 89.5929C110.532 89.827 110.395 90.1525 110.385 90.4741C110.345 90.7791 110.43 91.0952 110.65 91.3372C110.722 91.4161 110.799 91.4802 110.882 91.5295L110.878 91.5243L97.7072 103.484C97.6707 103.407 97.6141 103.329 97.5469 103.26C97.3224 103.013 97.0162 102.893 96.709 102.898C96.3832 102.872 96.0511 102.977 95.788 103.216C95.5249 103.455 95.3937 103.776 95.3833 104.097L94.863 114.795C94.8423 115.121 94.947 115.453 95.1812 115.711C95.4153 115.969 95.7409 116.105 96.0624 116.115C96.3901 116.101 96.7182 115.976 96.9863 115.737C97.2544 115.499 97.4057 115.179 97.4515 114.854L97.4513 114.859L97.5209 113.413L120.899 92.1881ZM134.001 79.1377L134.575 79.7692C135.048 80.2901 135.856 80.329 136.377 79.856C136.898 79.3829 136.937 78.5747 136.464 78.0537L135.89 77.4223C135.417 76.9014 134.609 76.8625 134.088 77.3355C133.567 77.8086 133.528 78.6168 134.001 79.1377ZM129.997 74.7283L130.571 75.3597C131.044 75.8806 131.852 75.9196 132.373 75.4465C132.894 74.9734 132.933 74.1652 132.46 73.6443L131.886 73.0129C131.413 72.4919 130.605 72.453 130.084 72.9261C129.563 73.3991 129.524 74.2074 129.997 74.7283ZM125.993 70.3188L126.566 70.9503C127.039 71.4712 127.848 71.5101 128.369 71.037C128.889 70.564 128.928 69.7558 128.455 69.2348L127.877 68.5981C127.404 68.0772 126.596 68.0383 126.075 68.5113C125.554 68.9844 125.515 69.7926 125.988 70.3136L125.993 70.3188ZM75.7336 76.6334L75.9056 76.8229C73.2885 80.0731 73.3486 84.7807 76.2111 87.9276L87.8416 100.735C89.7101 102.787 92.8828 102.94 94.94 101.077L108.174 89.0593C110.226 87.1907 110.379 84.018 108.515 81.9609L96.885 69.1535C94.0228 66.0016 89.3478 65.4896 85.8977 67.7538L85.856 67.782L85.684 67.5926C85.2002 67.0862 84.412 67.0483 83.8818 67.5058L75.8206 74.8262C75.3143 75.31 75.2761 76.1032 75.7336 76.6334ZM121.973 65.9237L122.546 66.5551C123.019 67.0761 123.828 67.115 124.348 66.6419C124.869 66.1689 124.908 65.3606 124.435 64.8397L123.857 64.203C123.384 63.6821 122.576 63.6432 122.055 64.1162C121.534 64.5893 121.495 65.3975 121.968 65.9184L121.973 65.9237ZM117.969 61.5143L118.537 62.1404C119.01 62.6613 119.819 62.7003 120.339 62.2272C120.86 61.7542 120.899 60.9459 120.426 60.425L119.858 59.7988C119.385 59.2779 118.576 59.239 118.055 59.712C117.535 60.1851 117.496 60.9933 117.969 61.5143ZM113.96 57.0995L114.533 57.731C115.006 58.2519 115.814 58.2908 116.335 57.8178C116.856 57.3447 116.895 56.5365 116.422 56.0155L115.849 55.3841C115.376 54.8632 114.567 54.8243 114.046 55.2973C113.525 55.7704 113.487 56.5786 113.96 57.0995ZM123.097 42.4745L125.959 45.6264C126.432 46.1473 127.241 46.1863 127.762 45.7132C128.283 45.2401 128.321 44.4319 127.848 43.911L124.986 40.7591C124.513 40.2382 123.705 40.1993 123.184 40.6723C122.663 41.1454 122.624 41.9536 123.097 42.4745ZM109.955 52.6901L110.529 53.3215C111.002 53.8424 111.81 53.8814 112.331 53.4083C112.852 52.9352 112.891 52.127 112.418 51.6061L111.844 50.9747C111.371 50.4537 110.563 50.4148 110.042 50.8879C109.521 51.3609 109.482 52.1692 109.955 52.6901ZM116.861 35.6078L119.709 38.7439C120.182 39.2648 120.991 39.3037 121.512 38.8307C122.032 38.3576 122.071 37.5494 121.598 37.0284L118.75 33.8924C118.277 33.3714 117.469 33.3325 116.948 33.8056C116.427 34.2786 116.388 35.0869 116.861 35.6078ZM105.951 48.2756L106.525 48.907C106.998 49.428 107.806 49.4669 108.327 48.9938C108.848 48.5208 108.887 47.7125 108.414 47.1916L107.836 46.5549C107.363 46.034 106.554 45.9951 106.033 46.4681C105.512 46.9412 105.474 47.7494 105.947 48.2703L105.951 48.2756ZM101.942 43.8659L102.515 44.4973C102.989 45.0183 103.797 45.0572 104.318 44.5841C104.839 44.1111 104.878 43.3028 104.405 42.7819L103.826 42.1452C103.353 41.6243 102.545 41.5854 102.024 42.0584C101.503 42.5315 101.464 43.3397 101.937 43.8607L101.942 43.8659ZM97.6995 109.809L97.787 106.739L114.23 91.8065L117.295 92.0145L97.6995 109.809ZM93.2055 99.1668C92.1954 100.079 90.6342 100.004 89.7165 98.9987L84.3982 93.1423L101.289 77.8038L106.607 83.6603C107.52 84.6703 107.444 86.2316 106.439 87.1492L93.2055 99.1668ZM97.9449 88.3101C99.3975 89.9097 101.872 90.0289 103.472 88.5763C105.072 87.1236 105.191 84.6487 103.738 83.0491C102.286 81.4495 99.8107 81.3303 98.2111 82.7829C96.6361 84.2468 96.5179 86.7016 97.9449 88.3101ZM89.2521 96.2089L89.2568 96.2142C90.7095 97.8138 93.1793 97.9327 94.7739 96.4799L94.7792 96.4751C96.3542 95.0112 96.4724 92.5564 95.0454 90.948C93.6184 89.3395 95.0406 90.9427 95.0406 90.9427C93.588 89.3431 91.1181 89.2241 89.5235 90.677L89.5183 90.6818C87.9433 92.1456 87.825 94.6005 89.2521 96.2089ZM99.7816 86.5317C99.2801 85.9742 99.3215 85.1158 99.879 84.6143C100.437 84.1128 101.295 84.1491 101.802 84.7069C102.303 85.2594 102.267 86.1181 101.714 86.6248C101.709 86.6296 101.704 86.6344 101.699 86.6392C101.151 87.1361 100.298 87.095 99.801 86.5478C99.7962 86.5425 99.7864 86.537 99.7816 86.5317ZM91.084 94.4253C90.5775 93.8676 90.6191 93.0041 91.1768 92.4976C91.7346 91.9911 92.598 92.0327 93.1045 92.5904C93.611 93.1482 93.5695 94.0117 93.0117 94.5182C93.0064 94.5229 93.0012 94.5277 92.9959 94.5325C92.4487 95.0294 91.5953 94.9883 91.0983 94.4411C91.0935 94.4358 91.0888 94.4306 91.084 94.4253ZM82.6778 91.253L78.1001 86.2121C78.0905 86.2016 78.081 86.1911 78.0714 86.1806C75.8734 83.7601 76.0538 80.0151 78.4742 77.8171C78.4847 77.8075 78.4953 77.7979 78.5005 77.7932L86.5617 70.4728C86.5723 70.4632 86.5828 70.4536 86.5933 70.4441C89.0138 68.2461 92.7588 68.4264 94.9568 70.8469L94.9807 70.8732L99.5583 75.9141L82.6778 91.253Z" fill="url(#paint4_linear_119_34)"/>
</g>
<circle cx="197.5" cy="6.5" r="6.5" fill="#E3E8F4"/>
<circle cx="220" cy="30" r="10" fill="#E3E8F4"/>
<circle cx="7" cy="116" r="7" fill="#E3E8F4"/>
<defs>
<linearGradient id="paint0_linear_119_34" x1="110.524" y1="103.606" x2="110.524" y2="153.359" gradientUnits="userSpaceOnUse">
<stop stop-color="#C0C6E1"/>
<stop offset="1" stop-color="#9CA6CA"/>
</linearGradient>
<linearGradient id="paint1_linear_119_34" x1="171.478" y1="103.606" x2="171.478" y2="153.359" gradientUnits="userSpaceOnUse">
<stop stop-color="#C0C6E1"/>
<stop offset="1" stop-color="#9CA6CA"/>
</linearGradient>
<linearGradient id="paint2_linear_119_34" x1="131.104" y1="112.851" x2="131.104" y2="115.347" gradientUnits="userSpaceOnUse">
<stop stop-color="#C0C6E1"/>
<stop offset="1" stop-color="#9CA6CA"/>
</linearGradient>
<linearGradient id="paint3_linear_119_34" x1="141.002" y1="91.641" x2="141.002" y2="153.359" gradientUnits="userSpaceOnUse">
<stop stop-color="#C0C6E1"/>
<stop offset="1" stop-color="#9CA6CA"/>
</linearGradient>
<linearGradient id="paint4_linear_119_34" x1="59.289" y1="35.7778" x2="164.067" y2="169.689" gradientUnits="userSpaceOnUse">
<stop stop-color="white"/>
<stop offset="1" stop-color="#F4F7FC"/>
</linearGradient>
<clipPath id="clip0_119_34">
<rect width="120.622" height="120.622" fill="white" transform="translate(47.2026 15.8445) rotate(2.75726)"/>
</clipPath>
</defs>
</svg>
